<svg xmlns="http://www.w3.org/2000/svg" version="1.1" viewBox="0 0 881.01 214"><path d="M 236 64 L 236 94 243.500 94 L 251 94 251.032 77.250 L 251.064 60.500 256.642 70.804 L 262.220 81.108 265.777 80.804 C 269.179 80.513, 269.563 80.067, 274.651 70.500 L 279.968 60.500 279.984 77.250 L 280 94 288 94 L 296 94 296 64 L 296 34 288.174 34 L 280.349 34 274.058 45.968 C 270.598 52.551, 267.257 58.632, 266.633 59.482 C 265.703 60.750, 264.245 58.607, 258.500 47.531 L 251.500 34.035 243.750 34.018 L 236 34 236 64 M 312.208 38.288 L 308 42.576 308 68.288 L 308 94 315.500 94 L 323 94 323 85.500 L 323 77 334 77 L 345 77 345 85.500 L 345 94 353 94 L 361 94 361 68.712 L 361 43.425 356.216 38.712 L 351.431 34 333.924 34 L 316.416 34 312.208 38.288 M 373 64 L 373 94 380.976 94 L 388.952 94 389.226 77.622 L 389.500 61.244 400.875 77.622 L 412.250 94 419.125 94 L 426 94 426 64 L 426 34 418.025 34 L 410.050 34 409.775 50.147 L 409.500 66.295 398.194 50.147 L 386.888 34 379.944 34 L 373 34 373 64 M 438 59.288 L 438 84.575 442.784 89.288 L 447.569 94 464.572 94 L 481.575 94 486.288 89.216 L 491 84.431 491 59.216 L 491 34 483.500 34 L 476 34 476 57.500 L 476 81 465 81 L 454 81 454 57.500 L 454 34 446 34 L 438 34 438 59.288 M 507.712 38.784 L 503 43.569 503 52.576 L 503 61.584 507.288 65.792 L 511.576 70 526.788 70 L 542 70 542 75.500 L 542 81 530.674 81 C 519.887 81, 519.237 80.881, 517 78.500 C 515.016 76.388, 513.747 76, 508.826 76 L 503 76 503 80.288 C 503 84.084, 503.549 85.115, 507.784 89.288 L 512.569 94 530.496 94 L 548.424 94 552.712 89.792 L 557 85.584 557 76.004 L 557 66.425 552.216 61.712 L 547.431 57 533.216 57 L 519 57 519 52 L 519 47 530.326 47 C 541.113 47, 541.763 47.119, 544 49.500 C 545.935 51.560, 547.287 52, 551.674 52 L 557 52 557 47.208 C 557 42.885, 556.581 42.005, 552.712 38.208 L 548.424 34 530.425 34 L 512.425 34 507.712 38.784 M 574.208 38.288 L 570 42.576 570 64.080 L 570 85.584 574.288 89.792 L 578.576 94 595.075 94 L 611.575 94 616.288 89.216 C 620.402 85.038, 621 83.897, 621 80.216 L 621 76 615.174 76 C 610.253 76, 608.984 76.388, 607 78.500 C 604.804 80.838, 604.013 81, 594.826 81 L 585 81 585 64 L 585 47 594.826 47 C 604.058 47, 604.796 47.154, 607.041 49.543 C 609.130 51.767, 610.126 52.050, 614.965 51.793 L 620.500 51.500 620.819 47.604 C 621.105 44.111, 620.644 43.208, 616.357 38.854 L 611.575 34 594.996 34 L 578.416 34 574.208 38.288 M 633 64 L 633 94 640.465 94 L 647.930 94 648.215 83.750 L 648.500 73.500 654.168 73.203 L 659.835 72.905 666.160 83.453 L 672.484 94 679.742 94 L 687 94 687 90.531 C 687 88.105, 685.614 84.920, 682.387 79.931 L 677.773 72.799 682.387 68.115 L 687 63.431 687 53.428 L 687 43.425 682.216 38.712 L 677.431 34 655.216 34 L 633 34 633 64 M 697.200 39.750 C 697.466 44.844, 697.757 45.536, 699.750 45.820 C 701.988 46.137, 702 46.236, 702 64.070 L 702 82 699.500 82 C 697.111 82, 697 82.267, 697 88 L 697 94 709.500 94 L 722 94 722 88 C 722 82.667, 721.778 82, 720 82 C 718.074 82, 718 81.333, 718 64 C 718 46.667, 718.074 46, 720 46 C 721.778 46, 722 45.333, 722 40 L 722 34 709.450 34 L 696.900 34 697.200 39.750 M 733 64 L 733 94 740.500 94 L 748 94 748 85.500 L 748 77 762.288 77 L 776.575 77 781.288 72.216 L 786 67.431 786 55.428 L 786 43.425 781.216 38.712 L 776.431 34 754.716 34 L 733 34 733 64 M 794 40.500 L 794 47 803 47 L 812 47 812 70.500 L 812 94 819.500 94 L 827 94 827 70.500 L 827 47 836 47 L 845 47 845 40.500 L 845 34 819.500 34 L 794 34 794 40.500 M 47.250 36.662 C 44.447 37.793, 46.466 40.328, 55.465 46.974 C 64.658 53.764, 68.532 55.068, 67.794 51.124 C 67.528 49.703, 50.312 35.937, 49 36.097 C 48.725 36.130, 47.938 36.385, 47.250 36.662 M 163.708 43.052 C 158.368 46.946, 154 50.497, 154 50.944 C 154 51.390, 154.608 52.260, 155.351 52.876 C 156.386 53.735, 157.634 53.355, 160.684 51.249 C 174.589 41.650, 176.024 40.445, 175.766 38.578 C 175.620 37.521, 175.031 36.503, 174.458 36.314 C 173.884 36.126, 169.047 39.158, 163.708 43.052 M 104.699 40.057 C 96.067 41.083, 85.323 46.772, 79.045 53.641 C 70.428 63.069, 66.760 72.472, 66.746 85.170 C 66.735 94.179, 69.304 100.575, 78.927 115.500 C 82.118 120.450, 85.295 126.300, 85.987 128.500 C 87.777 134.194, 88.513 135.460, 90.231 135.799 C 94.722 136.684, 92.284 126.369, 85.553 116 C 73.393 97.269, 71.544 92.436, 72.200 81.107 C 73.029 66.792, 80.433 55.861, 93.763 49.272 C 101.061 45.666, 101.838 45.500, 111.448 45.500 C 120.360 45.500, 122.180 45.817, 127.500 48.298 C 139.694 53.986, 148.042 65.594, 150.265 79.954 C 151.691 89.172, 149.155 97.296, 140.886 110 C 130.587 125.821, 127.512 134.917, 132.163 135.798 C 133.403 136.033, 134.217 134.766, 135.370 130.806 C 136.220 127.888, 140.088 120.550, 143.967 114.500 C 147.845 108.450, 151.963 101.025, 153.118 98 C 158.967 82.681, 154.985 65.269, 142.859 53.140 C 132.733 43.012, 119.119 38.345, 104.699 40.057 M 323 55.500 L 323 64 334 64 L 345 64 345 55.500 L 345 47 334 47 L 323 47 323 55.500 M 648 53.500 L 648 60 659.500 60 L 671 60 671 53.500 L 671 47 659.500 47 L 648 47 648 53.500 M 748 55.500 L 748 64 759 64 L 770 64 770 55.500 L 770 47 759 47 L 748 47 748 55.500 M 98.500 56.390 C 89.502 60.657, 82.690 69.872, 81.100 79.929 C 80.396 84.387, 80.530 85.214, 82.101 86.054 C 83.501 86.803, 84.154 86.580, 84.958 85.078 C 85.531 84.008, 86 82.367, 86 81.432 C 86 77.636, 88.517 71.756, 91.768 67.958 C 95.868 63.168, 101.311 60.193, 107.537 59.340 C 111.796 58.756, 114.892 56.226, 113.298 54.631 C 111.802 53.135, 103.211 54.157, 98.500 56.390 M 31.678 83.397 C 30.558 86.316, 33.566 87.073, 45.143 86.784 C 55.739 86.519, 56.500 86.366, 56.500 84.500 C 56.500 82.625, 55.740 82.482, 44.368 82.220 C 34.484 81.992, 32.133 82.210, 31.678 83.397 M 165.336 83.567 C 164.212 86.497, 166.566 87.069, 178.583 86.783 C 190.081 86.510, 190.511 86.421, 190.820 84.250 C 191.136 82.019, 191.034 82, 178.538 82 C 168.020 82, 165.838 82.259, 165.336 83.567 M 55.500 121.583 C 46.931 127.827, 44.538 131.095, 48.042 131.770 C 50.400 132.224, 68.157 119.056, 67.786 117.129 C 67.196 114.065, 64.453 115.059, 55.500 121.583 M 154.556 115.910 C 153.446 117.705, 155.218 119.595, 163.787 125.750 C 172.858 132.266, 176 133.380, 176 130.080 C 176 128.819, 172.924 125.902, 167.035 121.580 C 158.342 115.200, 155.729 114.012, 154.556 115.910 M 241.216 120.281 L 236 125.563 236 155.781 L 236 186 245 186 L 254 186 254 176 L 254 166 267 166 L 280 166 280 176 L 280 186 289 186 L 298 186 298 156.279 L 298 126.558 292.281 120.779 L 286.563 115 266.497 115 L 246.432 115 241.216 120.281 M 312 150.460 L 312 186 321 186 L 330 186 330.033 166.250 C 330.072 143.014, 328.086 142.732, 345.985 168.520 L 358.118 186 366.059 186 L 374 186 374 150.500 L 374 115 365.021 115 L 356.042 115 355.771 134.581 L 355.500 154.161 341.899 134.831 L 328.299 115.500 320.149 115.210 L 312 114.919 312 150.460 M 385 119.384 C 385 123.245, 386.429 126.068, 397 143.083 L 409 162.399 409 174.199 L 409 186 418 186 L 427 186 427.013 174.250 L 427.027 162.500 439.013 143.157 C 449.589 126.090, 451 123.294, 451 119.407 L 451 115 443.230 115 L 435.460 115 427.716 128.250 C 423.457 135.537, 419.577 142.122, 419.095 142.883 C 418.462 143.880, 415.804 140.185, 409.562 129.633 L 400.906 115 392.953 115 L 385 115 385 119.384 M 459.007 120.210 C 459.012 123.768, 461.753 135.319, 467.382 155.500 L 475.750 185.500 484.226 185.787 L 492.701 186.074 497.021 170.037 C 499.397 161.217, 501.606 154, 501.928 154 C 502.251 154, 504.492 161.200, 506.907 170 L 511.298 186 519.621 186 L 527.944 186 529.448 180.750 C 538.815 148.037, 545 123.775, 545 119.738 L 545 114.919 536.796 115.210 L 528.593 115.500 523.678 135.913 C 520.739 148.118, 518.459 155.758, 518.007 154.913 C 517.592 154.136, 515.586 146.525, 513.550 138 C 511.514 129.475, 509.415 120.813, 508.886 118.750 L 507.923 115 502.045 115 L 496.167 115 491.454 134.750 C 488.861 145.613, 486.485 154.939, 486.172 155.475 C 485.859 156.012, 483.305 147.237, 480.497 135.975 L 475.390 115.500 467.195 115.210 L 459 114.919 459.007 120.210 M 556.703 115.631 C 556.316 116.017, 556 132.008, 556 151.167 L 556 186 565.500 186 L 575 186 575 172 L 575 158 587.500 158 L 600 158 600 172 L 600 186 609 186 L 618 186 618 150.461 L 618 114.922 609.250 115.211 L 600.500 115.500 600.222 129.250 L 599.944 143 587.500 143 L 575.056 143 574.778 129.250 L 574.500 115.500 565.953 115.214 C 561.252 115.057, 557.089 115.244, 556.703 115.631 M 633 145.269 L 633 175.568 638.281 180.784 L 643.563 186 668.324 186 L 693.084 186 692.792 178.250 L 692.500 170.500 671.750 170.230 L 651 169.959 651 163.980 L 651 158 669 158 L 687 158 687 150.500 L 687 143 669 143 L 651 143 651 137.020 L 651 131.041 671.750 130.770 L 692.500 130.500 692.500 123 L 692.500 115.500 662.750 115.235 L 633 114.970 633 145.269 M 707 150.500 L 707 186 716 186 L 725 186 725 173.956 L 725 161.912 732.225 162.206 L 739.449 162.500 746.501 174 L 753.552 185.500 762.276 185.789 L 771 186.078 771 182.029 C 771 178.775, 769.886 176.307, 765.322 169.449 L 759.645 160.917 765.322 155.180 L 771 149.442 771 138 L 771 126.558 765.281 120.779 L 759.563 115 733.281 115 L 707 115 707 150.500 M 785 145.284 L 785 175.568 790.281 180.784 L 795.563 186 820.281 186 L 845 186 845 178 L 845 170 824 170 L 803 170 803 164 L 803 158 821 158 L 839 158 839 150.500 L 839 143 821 143 L 803 143 803 137 L 803 131 824 131 L 845 131 845 123 L 845 115 815 115 L 785 115 785 145.284 M 254 141.030 L 254 151.060 266.750 150.780 L 279.500 150.500 279.786 140.750 L 280.072 131 267.036 131 L 254 131 254 141.030 M 725 138.500 L 725 146 738.500 146 L 752 146 752 138.500 L 752 131 738.500 131 L 725 131 725 138.500 M 88.380 146.452 C 87.212 149.496, 89.155 150, 102.309 150.069 L 115.500 150.138 102 154.819 C 90.467 158.818, 88.453 159.828, 88.180 161.750 C 87.950 163.376, 88.366 164, 89.680 164 C 90.680 164, 101.094 160.802, 112.822 156.893 C 133.384 150.039, 137.238 148.031, 133.896 145.914 C 133.128 145.428, 122.698 145.024, 110.719 145.015 C 92.589 145.003, 88.844 145.243, 88.380 146.452 M 109.500 166.322 C 89.764 173.068, 88.500 173.649, 88.500 175.973 C 88.500 177.997, 89.587 178.984, 94.500 181.422 C 106.080 187.166, 124.644 185.871, 132.223 178.791 C 135.046 176.155, 135.183 175.754, 133.747 174.319 C 132.312 172.883, 131.917 172.922, 129.335 174.753 C 125.020 177.813, 117.548 180, 111.408 180 C 105.695 180, 97 178.256, 97 177.110 C 97 176.751, 104.987 173.829, 114.750 170.616 C 133.780 164.353, 136.165 163.109, 134.042 160.550 C 133.334 159.698, 132.248 159.033, 131.628 159.072 C 131.007 159.112, 121.050 162.375, 109.500 166.322" stroke="none" fill="#118ef4" fill-rule="evenodd"/><path d="M -0 107.001 L -0 214.002 440.250 213.751 L 880.500 213.500 880.755 106.750 L 881.009 0 440.505 0 L 0 0 -0 107.001 M 0.482 107.500 C 0.482 166.350, 0.603 190.278, 0.750 160.673 C 0.897 131.069, 0.897 82.919, 0.750 53.673 C 0.603 24.428, 0.482 48.650, 0.482 107.500 M 236 64 L 236 94 243.500 94 L 251 94 251.032 77.250 L 251.064 60.500 256.642 70.804 L 262.220 81.108 265.777 80.804 C 269.179 80.513, 269.563 80.067, 274.651 70.500 L 279.968 60.500 279.984 77.250 L 280 94 288 94 L 296 94 296 64 L 296 34 288.174 34 L 280.349 34 274.058 45.968 C 270.598 52.551, 267.257 58.632, 266.633 59.482 C 265.703 60.750, 264.245 58.607, 258.500 47.531 L 251.500 34.035 243.750 34.018 L 236 34 236 64 M 312.208 38.288 L 308 42.576 308 68.288 L 308 94 315.500 94 L 323 94 323 85.500 L 323 77 334 77 L 345 77 345 85.500 L 345 94 353 94 L 361 94 361 68.712 L 361 43.425 356.216 38.712 L 351.431 34 333.924 34 L 316.416 34 312.208 38.288 M 373 64 L 373 94 380.976 94 L 388.952 94 389.226 77.622 L 389.500 61.244 400.875 77.622 L 412.250 94 419.125 94 L 426 94 426 64 L 426 34 418.025 34 L 410.050 34 409.775 50.147 L 409.500 66.295 398.194 50.147 L 386.888 34 379.944 34 L 373 34 373 64 M 438 59.288 L 438 84.575 442.784 89.288 L 447.569 94 464.572 94 L 481.575 94 486.288 89.216 L 491 84.431 491 59.216 L 491 34 483.500 34 L 476 34 476 57.500 L 476 81 465 81 L 454 81 454 57.500 L 454 34 446 34 L 438 34 438 59.288 M 507.712 38.784 L 503 43.569 503 52.576 L 503 61.584 507.288 65.792 L 511.576 70 526.788 70 L 542 70 542 75.500 L 542 81 530.674 81 C 519.887 81, 519.237 80.881, 517 78.500 C 515.016 76.388, 513.747 76, 508.826 76 L 503 76 503 80.288 C 503 84.084, 503.549 85.115, 507.784 89.288 L 512.569 94 530.496 94 L 548.424 94 552.712 89.792 L 557 85.584 557 76.004 L 557 66.425 552.216 61.712 L 547.431 57 533.216 57 L 519 57 519 52 L 519 47 530.326 47 C 541.113 47, 541.763 47.119, 544 49.500 C 545.935 51.560, 547.287 52, 551.674 52 L 557 52 557 47.208 C 557 42.885, 556.581 42.005, 552.712 38.208 L 548.424 34 530.425 34 L 512.425 34 507.712 38.784 M 574.208 38.288 L 570 42.576 570 64.080 L 570 85.584 574.288 89.792 L 578.576 94 595.075 94 L 611.575 94 616.288 89.216 C 620.402 85.038, 621 83.897, 621 80.216 L 621 76 615.174 76 C 610.253 76, 608.984 76.388, 607 78.500 C 604.804 80.838, 604.013 81, 594.826 81 L 585 81 585 64 L 585 47 594.826 47 C 604.058 47, 604.796 47.154, 607.041 49.543 C 609.130 51.767, 610.126 52.050, 614.965 51.793 L 620.500 51.500 620.819 47.604 C 621.105 44.111, 620.644 43.208, 616.357 38.854 L 611.575 34 594.996 34 L 578.416 34 574.208 38.288 M 633 64 L 633 94 640.465 94 L 647.930 94 648.215 83.750 L 648.500 73.500 654.168 73.203 L 659.835 72.905 666.160 83.453 L 672.484 94 679.742 94 L 687 94 687 90.531 C 687 88.105, 685.614 84.920, 682.387 79.931 L 677.773 72.799 682.387 68.115 L 687 63.431 687 53.428 L 687 43.425 682.216 38.712 L 677.431 34 655.216 34 L 633 34 633 64 M 697.200 39.750 C 697.466 44.844, 697.757 45.536, 699.750 45.820 C 701.988 46.137, 702 46.236, 702 64.070 L 702 82 699.500 82 C 697.111 82, 697 82.267, 697 88 L 697 94 709.500 94 L 722 94 722 88 C 722 82.667, 721.778 82, 720 82 C 718.074 82, 718 81.333, 718 64 C 718 46.667, 718.074 46, 720 46 C 721.778 46, 722 45.333, 722 40 L 722 34 709.450 34 L 696.900 34 697.200 39.750 M 733 64 L 733 94 740.500 94 L 748 94 748 85.500 L 748 77 762.288 77 L 776.575 77 781.288 72.216 L 786 67.431 786 55.428 L 786 43.425 781.216 38.712 L 776.431 34 754.716 34 L 733 34 733 64 M 794 40.500 L 794 47 803 47 L 812 47 812 70.500 L 812 94 819.500 94 L 827 94 827 70.500 L 827 47 836 47 L 845 47 845 40.500 L 845 34 819.500 34 L 794 34 794 40.500 M 47.250 36.662 C 44.447 37.793, 46.466 40.328, 55.465 46.974 C 64.658 53.764, 68.532 55.068, 67.794 51.124 C 67.528 49.703, 50.312 35.937, 49 36.097 C 48.725 36.130, 47.938 36.385, 47.250 36.662 M 163.708 43.052 C 158.368 46.946, 154 50.497, 154 50.944 C 154 51.390, 154.608 52.260, 155.351 52.876 C 156.386 53.735, 157.634 53.355, 160.684 51.249 C 174.589 41.650, 176.024 40.445, 175.766 38.578 C 175.620 37.521, 175.031 36.503, 174.458 36.314 C 173.884 36.126, 169.047 39.158, 163.708 43.052 M 104.699 40.057 C 96.067 41.083, 85.323 46.772, 79.045 53.641 C 70.428 63.069, 66.760 72.472, 66.746 85.170 C 66.735 94.179, 69.304 100.575, 78.927 115.500 C 82.118 120.450, 85.295 126.300, 85.987 128.500 C 87.777 134.194, 88.513 135.460, 90.231 135.799 C 94.722 136.684, 92.284 126.369, 85.553 116 C 73.393 97.269, 71.544 92.436, 72.200 81.107 C 73.029 66.792, 80.433 55.861, 93.763 49.272 C 101.061 45.666, 101.838 45.500, 111.448 45.500 C 120.360 45.500, 122.180 45.817, 127.500 48.298 C 139.694 53.986, 148.042 65.594, 150.265 79.954 C 151.691 89.172, 149.155 97.296, 140.886 110 C 130.587 125.821, 127.512 134.917, 132.163 135.798 C 133.403 136.033, 134.217 134.766, 135.370 130.806 C 136.220 127.888, 140.088 120.550, 143.967 114.500 C 147.845 108.450, 151.963 101.025, 153.118 98 C 158.967 82.681, 154.985 65.269, 142.859 53.140 C 132.733 43.012, 119.119 38.345, 104.699 40.057 M 323 55.500 L 323 64 334 64 L 345 64 345 55.500 L 345 47 334 47 L 323 47 323 55.500 M 648 53.500 L 648 60 659.500 60 L 671 60 671 53.500 L 671 47 659.500 47 L 648 47 648 53.500 M 748 55.500 L 748 64 759 64 L 770 64 770 55.500 L 770 47 759 47 L 748 47 748 55.500 M 98.500 56.390 C 89.502 60.657, 82.690 69.872, 81.100 79.929 C 80.396 84.387, 80.530 85.214, 82.101 86.054 C 83.501 86.803, 84.154 86.580, 84.958 85.078 C 85.531 84.008, 86 82.367, 86 81.432 C 86 77.636, 88.517 71.756, 91.768 67.958 C 95.868 63.168, 101.311 60.193, 107.537 59.340 C 111.796 58.756, 114.892 56.226, 113.298 54.631 C 111.802 53.135, 103.211 54.157, 98.500 56.390 M 31.678 83.397 C 30.558 86.316, 33.566 87.073, 45.143 86.784 C 55.739 86.519, 56.500 86.366, 56.500 84.500 C 56.500 82.625, 55.740 82.482, 44.368 82.220 C 34.484 81.992, 32.133 82.210, 31.678 83.397 M 165.336 83.567 C 164.212 86.497, 166.566 87.069, 178.583 86.783 C 190.081 86.510, 190.511 86.421, 190.820 84.250 C 191.136 82.019, 191.034 82, 178.538 82 C 168.020 82, 165.838 82.259, 165.336 83.567 M 55.500 121.583 C 46.931 127.827, 44.538 131.095, 48.042 131.770 C 50.400 132.224, 68.157 119.056, 67.786 117.129 C 67.196 114.065, 64.453 115.059, 55.500 121.583 M 154.556 115.910 C 153.446 117.705, 155.218 119.595, 163.787 125.750 C 172.858 132.266, 176 133.380, 176 130.080 C 176 128.819, 172.924 125.902, 167.035 121.580 C 158.342 115.200, 155.729 114.012, 154.556 115.910 M 241.216 120.281 L 236 125.563 236 155.781 L 236 186 245 186 L 254 186 254 176 L 254 166 267 166 L 280 166 280 176 L 280 186 289 186 L 298 186 298 156.279 L 298 126.558 292.281 120.779 L 286.563 115 266.497 115 L 246.432 115 241.216 120.281 M 312 150.460 L 312 186 321 186 L 330 186 330.033 166.250 C 330.072 143.014, 328.086 142.732, 345.985 168.520 L 358.118 186 366.059 186 L 374 186 374 150.500 L 374 115 365.021 115 L 356.042 115 355.771 134.581 L 355.500 154.161 341.899 134.831 L 328.299 115.500 320.149 115.210 L 312 114.919 312 150.460 M 385 119.384 C 385 123.245, 386.429 126.068, 397 143.083 L 409 162.399 409 174.199 L 409 186 418 186 L 427 186 427.013 174.250 L 427.027 162.500 439.013 143.157 C 449.589 126.090, 451 123.294, 451 119.407 L 451 115 443.230 115 L 435.460 115 427.716 128.250 C 423.457 135.537, 419.577 142.122, 419.095 142.883 C 418.462 143.880, 415.804 140.185, 409.562 129.633 L 400.906 115 392.953 115 L 385 115 385 119.384 M 459.007 120.210 C 459.012 123.768, 461.753 135.319, 467.382 155.500 L 475.750 185.500 484.226 185.787 L 492.701 186.074 497.021 170.037 C 499.397 161.217, 501.606 154, 501.928 154 C 502.251 154, 504.492 161.200, 506.907 170 L 511.298 186 519.621 186 L 527.944 186 529.448 180.750 C 538.815 148.037, 545 123.775, 545 119.738 L 545 114.919 536.796 115.210 L 528.593 115.500 523.678 135.913 C 520.739 148.118, 518.459 155.758, 518.007 154.913 C 517.592 154.136, 515.586 146.525, 513.550 138 C 511.514 129.475, 509.415 120.813, 508.886 118.750 L 507.923 115 502.045 115 L 496.167 115 491.454 134.750 C 488.861 145.613, 486.485 154.939, 486.172 155.475 C 485.859 156.012, 483.305 147.237, 480.497 135.975 L 475.390 115.500 467.195 115.210 L 459 114.919 459.007 120.210 M 556.703 115.631 C 556.316 116.017, 556 132.008, 556 151.167 L 556 186 565.500 186 L 575 186 575 172 L 575 158 587.500 158 L 600 158 600 172 L 600 186 609 186 L 618 186 618 150.461 L 618 114.922 609.250 115.211 L 600.500 115.500 600.222 129.250 L 599.944 143 587.500 143 L 575.056 143 574.778 129.250 L 574.500 115.500 565.953 115.214 C 561.252 115.057, 557.089 115.244, 556.703 115.631 M 633 145.269 L 633 175.568 638.281 180.784 L 643.563 186 668.324 186 L 693.084 186 692.792 178.250 L 692.500 170.500 671.750 170.230 L 651 169.959 651 163.980 L 651 158 669 158 L 687 158 687 150.500 L 687 143 669 143 L 651 143 651 137.020 L 651 131.041 671.750 130.770 L 692.500 130.500 692.500 123 L 692.500 115.500 662.750 115.235 L 633 114.970 633 145.269 M 707 150.500 L 707 186 716 186 L 725 186 725 173.956 L 725 161.912 732.225 162.206 L 739.449 162.500 746.501 174 L 753.552 185.500 762.276 185.789 L 771 186.078 771 182.029 C 771 178.775, 769.886 176.307, 765.322 169.449 L 759.645 160.917 765.322 155.180 L 771 149.442 771 138 L 771 126.558 765.281 120.779 L 759.563 115 733.281 115 L 707 115 707 150.500 M 785 145.284 L 785 175.568 790.281 180.784 L 795.563 186 820.281 186 L 845 186 845 178 L 845 170 824 170 L 803 170 803 164 L 803 158 821 158 L 839 158 839 150.500 L 839 143 821 143 L 803 143 803 137 L 803 131 824 131 L 845 131 845 123 L 845 115 815 115 L 785 115 785 145.284 M 254 141.030 L 254 151.060 266.750 150.780 L 279.500 150.500 279.786 140.750 L 280.072 131 267.036 131 L 254 131 254 141.030 M 725 138.500 L 725 146 738.500 146 L 752 146 752 138.500 L 752 131 738.500 131 L 725 131 725 138.500 M 88.380 146.452 C 87.212 149.496, 89.155 150, 102.309 150.069 L 115.500 150.138 102 154.819 C 90.467 158.818, 88.453 159.828, 88.180 161.750 C 87.950 163.376, 88.366 164, 89.680 164 C 90.680 164, 101.094 160.802, 112.822 156.893 C 133.384 150.039, 137.238 148.031, 133.896 145.914 C 133.128 145.428, 122.698 145.024, 110.719 145.015 C 92.589 145.003, 88.844 145.243, 88.380 146.452 M 109.500 166.322 C 89.764 173.068, 88.500 173.649, 88.500 175.973 C 88.500 177.997, 89.587 178.984, 94.500 181.422 C 106.080 187.166, 124.644 185.871, 132.223 178.791 C 135.046 176.155, 135.183 175.754, 133.747 174.319 C 132.312 172.883, 131.917 172.922, 129.335 174.753 C 125.020 177.813, 117.548 180, 111.408 180 C 105.695 180, 97 178.256, 97 177.110 C 97 176.751, 104.987 173.829, 114.750 170.616 C 133.780 164.353, 136.165 163.109, 134.042 160.550 C 133.334 159.698, 132.248 159.033, 131.628 159.072 C 131.007 159.112, 121.050 162.375, 109.500 166.322" stroke="none" fill="#fbfbfc" fill-rule="evenodd"/></svg>